<svg xmlns="http://www.w3.org/2000/svg" viewBox="0 0 100 125"><path d="M93.8 42.6H81.2c-2 0-3.7 1.7-3.7 3.8v27.8c0 2.1 1.7 3.8 3.7 3.8h12.6c2 0 3.7-1.7 3.7-3.8V46.5c0-2.2-1.6-3.9-3.7-3.9zm-4.7 33.8h-3.6c-.5 0-1-.4-1-1s.4-1 1-1h3.6c.5 0 1 .4 1 1s-.4 1-1 1zm5.6-3.6s-.1 0 0 0H80.5h-.1v-25H94.8v25zM81.9 29.7c-.5-.2-1-.3-1.5-.3H54.6c-.5 0-1 .1-1.5.3-1.4.6-2.3 2-2.3 3.6v40.8c0 2.2 1.7 3.9 3.8 3.9h21.3c-.7-1.1-1.2-2.4-1.2-3.8v-2.3H54.5h-.1V34.7H80.7v5h3.5V33.3c0-1.6-1-3-2.3-3.6zm-17 44.7c0-.1.1-.1.1-.2.2-.2.4-.3.7-.3h3.7c.4 0 .7.2.9.5.1.1.1.3.1.5s0 .3-.1.5c-.2.3-.5.5-.9.5h-3.7c-.5 0-1-.5-1-1 0-.1.1-.3.2-.5zm-1.9-48v.3H7.2v33h40.9v9.4h-8.6c0 .9.5 4.8 6.4 5.6h-.3c.9 0 1.7.8 1.7 1.7 0 .9-.8 1.7-1.7 1.7H19.8c-.9 0-1.7-.8-1.7-1.7 0-.9.8-1.7 1.7-1.7h-.2C25.5 74 26 70 26 69.1H6.4c-2.1 0-3.8-1.7-3.9-3.7v-.1-.4-6-32.5c0-2.4 2-4.4 4.4-4.4h51.7c2.5 0 4.4 2 4.4 4.4z"/></svg>
