<svg xmlns="http://www.w3.org/2000/svg" data-name="Layer 1" viewBox="0 0 100 125"><path d="M89 16.79a386.66 386.66 0 0 0-38.43 36.09c-4.59-4.13-9.23-8.21-14-12.12-.3-.27-1.07.05-1.72.7s-1 1.43-.71 1.73l.07.09q6.91 8.49 14.28 16.53a3.18 3.18 0 0 0 4.49.21l.22-.21a385.74 385.74 0 0 0 38.35-40.58c.24-.33-.08-1.1-.74-1.77s-1.44-1-1.77-.74z"/><path d="M9.1 62.48a44.07 44.07 0 0 0 6.55 12.89 42.72 42.72 0 0 0 72.26-5 42.11 42.11 0 0 0 4.14-27.2 1.85 1.85 0 0 0-2-1.68 1.93 1.93 0 0 0-1.36 2.2v.3A38.77 38.77 0 0 1 83.25 68a37.82 37.82 0 0 1-18.59 15.5 37.41 37.41 0 0 1-23.87.92 36.72 36.72 0 0 1-19.34-13.68c-9.79-12.95-9.21-32.42 1.3-45a38.24 38.24 0 0 1 20.49-12.89 38.66 38.66 0 0 1 24.56 2.37 2 2 0 0 0 2.54-.67 1.9 1.9 0 0 0-1-2.5l-.28-.15a42 42 0 0 0-27.18-4.11A42.58 42.58 0 0 0 7.27 48.16 44.89 44.89 0 0 0 9.1 62.48z"/></svg>
