<svg xmlns="http://www.w3.org/2000/svg" xmlns:xlink="http://www.w3.org/1999/xlink" version="1.1" x="0px" y="0px" viewBox="0 0 100 125" enable-background="new 0 0 100 100" xml:space="preserve"><g><g><g><path d="M25.278,63.41L8.787,46.92c-5.094-5.093-7.899-11.865-7.899-19.068c0-7.203,2.805-13.975,7.899-19.067     c5.092-5.093,11.864-7.898,19.066-7.898c7.203,0,13.975,2.805,19.067,7.898l16.49,16.49l-7.07,7.071l-16.491-16.49     c-3.204-3.205-7.464-4.969-11.996-4.969c-4.531,0-8.792,1.765-11.996,4.969c-3.205,3.204-4.97,7.464-4.97,11.996     c0,4.532,1.765,8.792,4.97,11.997l16.491,16.489L25.278,63.41z"/></g><g><path d="M72.146,99.099c-6.905,0-13.81-2.628-19.066-7.884L36.589,74.722l7.071-7.07l16.491,16.492     c6.615,6.614,17.378,6.613,23.993-0.001c6.613-6.614,6.613-17.378-0.001-23.993l-16.49-16.49l7.07-7.071l16.491,16.49     c10.513,10.514,10.513,27.621,0.001,38.136C85.958,96.471,79.052,99.099,72.146,99.099z"/></g></g><g><rect x="22.339" y="44.998" transform="matrix(0.7071 0.7071 -0.7071 0.7071 49.9983 -20.7112)" width="55.321" height="10"/></g></g></svg>
