<svg xmlns="http://www.w3.org/2000/svg" viewBox="0 0 100 125"><path d="M25.278 63.41L8.788 46.92c-5.095-5.093-7.9-11.865-7.9-19.068 0-7.203 2.805-13.975 7.9-19.067C13.877 3.692 20.65.887 27.852.887c7.203 0 13.975 2.805 19.067 7.898l16.49 16.49-7.07 7.07-16.49-16.49c-3.205-3.204-7.465-4.968-11.997-4.968-4.53 0-8.792 1.765-11.996 4.97-3.205 3.203-4.97 7.463-4.97 11.995 0 4.532 1.765 8.792 4.97 11.997l16.49 16.488-7.07 7.072zM72.146 99.1c-6.905 0-13.81-2.63-19.066-7.885L36.59 74.722l7.07-7.07 16.49 16.492c6.616 6.614 17.38 6.613 23.994 0 6.613-6.615 6.613-17.38 0-23.994l-16.49-16.49 7.07-7.07 16.49 16.49c10.513 10.513 10.513 27.62 0 38.135C85.96 96.47 79.053 99.1 72.147 99.1z"/><g><path d="M33.976 26.903L73.094 66.02l-7.07 7.07-39.12-39.116z"/></g></svg>